<svg
  width="64"
  height="64"
  viewBox="0 0 64 64"
  fill="none"
  xmlns="http://www.w3.org/2000/svg"
>
  <title>Finance Icon - Money Bag</title>
  <!-- Bag Shape -->
  <path
    d="M28 2h8c1.1 0 2 0.9 2 2v4h4c1.7 0 3.2 1.1 3.8 2.7l1.2 3c0.7 1.6 0.3 3.4-1 4.6l-1.9 1.7c4.5 3.7 7 9.1 7 15 0 10.5-8.5 19-19 19s-19-8.5-19-19c0-5.9 2.6-11.3 7-15l-1.9-1.7c-1.3-1.2-1.7-3-1-4.6l1.2-3C18.8 9.1 20.3 8 22 8h4V4c0-1.1 0.9-2 2-2z"
    fill="#8DC63F"
  />
  <!-- Dollar Sign -->
  <path
    d="M32 18c-7.7 0-14 6.3-14 14 0 7.7 6.3 14 14 14s14-6.3 14-14c0-7.7-6.3-14-14-14zm2.5 21.9v2.1h-5v-2.1c-1.8-0.3-3.4-1.1-4.7-2.2l2-3c1.1 0.9 2.4 1.5 3.7 1.7v-5.3c-1.3-0.3-2.7-0.7-3.8-1.5-1.2-0.8-1.8-2.1-1.8-3.6 0-2.2 1.8-4 4-4v-1.9h2v1.9c1.5 0.2 2.9 0.8 4 1.7l-2 3c-0.8-0.6-1.7-0.9-2.7-1v5.1c1.4 0.3 2.7 0.7 3.9 1.5 1.3 0.8 2.1 2.1 2.1 3.7 0.1 2.3-1.7 4.1-3.8 4.3z"
    fill="#ffffff"
  />
  <!-- Bag Knot -->
  <path
    d="M24 8h16l-2-6H26l-2 6z"
    fill="#4E342E"
  />
</svg>
